<?xml version="1.0" encoding="UTF-8"?>
<svg id="a" xmlns="http://www.w3.org/2000/svg" width="19.3786mm" height="4.9389mm" viewBox="0 0 54.9314 14">
  <g isolation="isolate">
    <g isolation="isolate">
      <g isolation="isolate">
        <path d="M19.7263,1.9161h4.2334c1.1875,0,3.8496.2637,3.8496,2.9736,0,2.7588-2.7227,3.083-3.7539,3.083h-2.458v3.2979h-1.8711V1.9161ZM23.6482,6.2452c1.0068,0,2.2061-.1914,2.2061-1.3555,0-1.127-1.2227-1.3311-2.2061-1.3311h-2.0508v2.6865h2.0508Z" fill="#fff"/>
        <path d="M28.99,2.503c0-.5518.4922-1.0195,1.1396-1.0195.6357,0,1.1279.4678,1.1279,1.0195,0,.5996-.4922,1.0674-1.1279,1.0674-.6475,0-1.1396-.4678-1.1396-1.0674ZM29.2419,4.5782h1.751v6.6924h-1.751v-6.6924Z" fill="#fff"/>
        <path d="M32.1707,4.5782h1.9072c.7676,1.6436,1.3428,3.0225,2.0742,4.7139h.0361c.7559-1.7754,1.3438-3.1787,2.0635-4.7139h1.8584l-2.9023,6.6924h-2.1104l-2.9268-6.6924Z" fill="#fff"/>
        <path d="M40.6062,7.9366c0-2.0752,1.6914-3.5498,4.1025-3.5498s4.1016,1.4746,4.1016,3.5498c0,2.0869-1.6914,3.5381-4.1016,3.5381s-4.1025-1.4512-4.1025-3.5381ZM46.9753,7.9366c0-1.1514-.9238-1.9434-2.2666-1.9434-1.332,0-2.2793.8037-2.2793,1.9434,0,1.127.9473,1.9307,2.2793,1.9307,1.3428,0,2.2666-.8037,2.2666-1.9307Z" fill="#fff"/>
        <path d="M50.9382,9.1358v-3.0342h-1.583v-1.5234h1.583v-1.8945h1.751v1.8945h2.2422v1.5234h-2.2422v2.4346c0,.6357,0,1.415,1.1035,1.415.3711,0,.7793-.1074,1.1387-.2402v1.5117c-.4072.1797-.9473.252-1.4863.252-2.5068,0-2.5068-1.6436-2.5068-2.3389Z" fill="#fff"/>
      </g>
    </g>
  </g>
  <path d="M14.0001,6c0-.6-.2-1.2-.4-1.7l-3.7,1,2.7-2.7c-.4-.5-.8-.9-1.2-1.2l-2.7,2.7,1-3.7c-.5-.2-1.1-.4-1.7-.4l-1,3.7-1-3.7c-.6,0-1.2.2-1.7.4l1,3.7L2.6,1.4c-.5.4-.9.8-1.2,1.2l2.7,2.7L.4,4.3c-.2.5-.4,1.1-.4,1.7l3.7,1-3.7,1c0,.6.2,1.2.4,1.7l3.7-1-2.7,2.7c.4.5.8.9,1.2,1.2l2.7-2.7-1,3.7c.5.2,1.1.4,1.7.4l1-3.7,1,3.7c.6,0,1.2-.2,1.7-.4l-1-3.7,2.7,2.7c.5-.4.9-.8,1.2-1.2l-2.7-2.7,3.7,1c.2-.5.4-1.1.4-1.7l-3.7-1,3.7-1ZM6.9001,8.6c-.9,0-1.6-.7-1.6-1.6s.7-1.6,1.6-1.6,1.6.7,1.6,1.6-.7,1.6-1.6,1.6Z" fill="#fff"/>
</svg>