<?xml version="1.0" encoding="UTF-8"?>
<svg id="a" data-name="Layer 1" xmlns="http://www.w3.org/2000/svg" width="4.9389mm" height="4.9389mm" viewBox="0 0 14.0001 14">
  <path d="M14.0001,6c0-.6-.2-1.2-.4-1.7l-3.7,1,2.7-2.7c-.4-.5-.8-.9-1.2-1.2l-2.7,2.7,1-3.7c-.5-.2-1.1-.4-1.7-.4l-1,3.7-1-3.7c-.6,0-1.2.2-1.7.4l1,3.7L2.6,1.4c-.5.4-.9.8-1.2,1.2l2.7,2.7L.4,4.3c-.2.5-.4,1.1-.4,1.7l3.7,1-3.7,1c0,.6.2,1.2.4,1.7l3.7-1-2.7,2.7c.4.5.8.9,1.2,1.2l2.7-2.7-1,3.7c.5.2,1.1.4,1.7.4l1-3.7,1,3.7c.6,0,1.2-.2,1.7-.4l-1-3.7,2.7,2.7c.5-.4.9-.8,1.2-1.2l-2.7-2.7,3.7,1c.2-.5.4-1.1.4-1.7l-3.7-1,3.7-1ZM6.9001,8.6c-.9,0-1.6-.7-1.6-1.6s.7-1.6,1.6-1.6,1.6.7,1.6,1.6-.7,1.6-1.6,1.6Z" fill="#010101"></path>
</svg>