<?xml version="1.0" encoding="UTF-8"?>
<svg id="a" data-name="Layer 1" xmlns="http://www.w3.org/2000/svg" width="12.2878mm" height="1.1916mm" viewBox="0 0 34.8314 3.3777">
  <g isolation="isolate">
    <g isolation="isolate">
      <g isolation="isolate">
        <path d="M0,.0662h1.5076C1.7989.0662,2.8624.0662,2.8624,1.1208c0,1.0636-1.0801,1.0966-1.3422,1.0966h-.7557v1.089h-.7646V.0662ZM1.3663,1.4986c.2621,0,.6946,0,.6946-.3817,0-.3702-.4287-.3702-.6819-.3702h-.6145v.7519h.6017Z" fill="#010101"></path>
        <path d="M4.0392.0662h.7646v3.2403h-.7646V.0662Z" fill="#010101"></path>
        <path d="M5.8712.0662h.8028c.1781.2366.8384,1.7862,1.1132,2.3345h.0127c.2901-.5483.9262-2.0978,1.1004-2.3345h.8053l-1.4656,3.2403h-.902L5.8712.0662Z" fill="#010101"></path>
        <path d="M10.4142,1.6907c0-1.0063.8854-1.6907,1.9694-1.6907,1.0928,0,1.9694.6933,1.9694,1.6907,0,.9885-.8727,1.6869-1.9694,1.6869-1.0801,0-1.9694-.6819-1.9694-1.6869ZM13.5463,1.6907c0-.5534-.486-.9974-1.159-.9974-.6565,0-1.1717.4198-1.1717.9974,0,.589.5241.9923,1.1717.9923.6615,0,1.159-.4236,1.159-.9923Z" fill="#010101"></path>
        <path d="M15.134.7468V.0662h3.0787v.6806h-1.159v2.5597h-.7608V.7468h-1.159Z" fill="#010101"></path>
        <path d="M21.0332.0662h1.5076c1.2964,0,1.8447.7226,1.8447,1.5991,0,.9643-.6692,1.6411-1.7989,1.6411h-1.5534V.0662ZM22.495,2.6245c.5407,0,1.089-.1323,1.089-.9262,0-.9516-.7442-.9516-1.234-.9516h-.5521v1.8778h.6972Z" fill="#010101"></path>
        <path d="M25.6449.0662h.7646v3.2403h-.7646V.0662Z" fill="#010101"></path>
        <path d="M28.9475.0662h.8931l1.4707,3.2403h-.8091c-.1209-.2455-.2417-.4949-.3613-.7391h-1.5088c-.1209.2443-.2404.4936-.3613.7391h-.7938L28.9475.0662ZM29.7999,1.8485c-.1374-.2875-.271-.5814-.4071-.8893h-.0127c-.1374.3079-.2697.6017-.4071.8893h.8269Z" fill="#010101"></path>
        <path d="M32.3761.0662h.7646v2.5584h1.6907v.6819h-2.4553V.0662Z" fill="#010101"></path>
      </g>
    </g>
  </g>
</svg>